<svg xmlns="http://www.w3.org/2000/svg" viewBox="0 0 1000 1000"><defs><style>.cls-1{fill:none;}.cls-2{fill:#f0f0f0;}</style></defs><title>chrispysaid-logo_white-on-transp_spaced</title><g id="Layer_2" data-name="Layer 2"><g id="Layer_1-2" data-name="Layer 1"><rect class="cls-1" width="1000" height="1000"/><path class="cls-2" d="M675,638.49c-5.43-6.34-17.19-6.34-23.53-.91C618.88,665.64,572.71,681,530.17,681c-102.28,0-178.31-83.28-178.31-183.75,0-101.37,75.13-186.45,177.41-186.45,44.35,0,88.7,16.29,122.19,46.16a15.86,15.86,0,0,0,22.63,0l70.6-73.32c7.24-7.24,7.24-18.1-.9-25.34-61.55-56.12-128.53-84.18-219-84.18A326.7,326.7,0,0,0,253.28,682.7l-31.09,116a18.56,18.56,0,0,0,22.73,22.74l168.25-45.09-8.5,27.11a330.61,330.61,0,0,0,120.07,22.35c80.56,0,158.4-28.06,220-87.8,6.34-6.33,7.24-18.1.91-24.44Z"/></g></g></svg>